<svg version="1.2" xmlns="http://www.w3.org/2000/svg" viewBox="0 0 1219 317" width="1219" height="317">
	<title>New Project</title>
	<style>
		tspan { white-space:pre } 
		.t0 { font-size: 150px;fill: #000000;font-weight: 400;font-family: "Ubuntu-Regular", "Ubuntu" } 
		.s1 { fill: #dafff3;stroke: #000000;paint-order:stroke fill markers;stroke-linejoin: round;stroke-width: 32 } 
	</style>
	<text id="Timesavers" style="transform: matrix(1,0,0,1,364,212)" >
		<tspan x="0" y="0" class="t0">T</tspan><tspan  y="0" class="t0">i</tspan><tspan  y="0" class="t0">m</tspan><tspan  y="0" class="t0">e</tspan><tspan  y="0" class="t0">s</tspan><tspan  y="0" class="t0">a</tspan><tspan  y="0" class="t0">v</tspan><tspan  y="0" class="t0">e</tspan><tspan  y="0" class="t0">r</tspan><tspan  y="0" class="t0">s</tspan><tspan  y="0" class="t0">
</tspan>
	</text>
	<path id="Shape 1" fill-rule="evenodd" class="s1" d="m220 51c28.4 0 55.6 11.3 75.7 31.3 20 20.1 31.3 47.3 31.3 75.7 0 28.4-11.3 55.6-31.3 75.7-20.1 20-47.3 31.3-75.7 31.3-28.4 0-55.6-11.3-75.7-31.3-20-20.1-31.3-47.3-31.3-75.7 0-28.4 11.3-55.6 31.3-75.7 20.1-20 47.3-31.3 75.7-31.3zm-10 50.2v56.8c0 3.3 1.6 6.5 4.4 8.4l40.2 26.7c4.6 3.1 10.8 1.8 13.9-2.8 3.1-4.6 1.8-10.8-2.8-13.9l-35.7-23.8v-51.4c0-5.6-4.4-10.1-10-10.1-5.6 0-10 4.5-10 10.1z"/>
</svg>